<svg width="1366" height="21" viewBox="0 0 1366 21" fill="none" xmlns="http://www.w3.org/2000/svg">
<path d="M-33 4C-33 19.3535 -2.80751 15.0904 21.0319 8.70648C31.2771 5.96294 42.0282 5.24456 52.3707 7.59455L79.5248 13.7644C89.8202 16.1037 100.562 15.5469 110.56 12.1557L120.301 8.85174C129.677 5.67179 139.717 4.98055 149.44 6.84567L188.298 14.2998C198.668 16.289 209.385 15.3682 219.264 11.6394L223.287 10.1209C233.859 6.12996 245.378 5.36148 256.387 7.9125L283.767 14.2568C292.52 16.285 301.627 16.2219 310.351 14.0728L337.633 7.35185C346.572 5.14986 355.91 5.13856 364.853 7.3189L393.343 14.2643C401.654 16.2902 410.313 16.4258 418.682 14.6611L454.876 7.03011C464.304 5.0423 474.081 5.46921 483.3 8.2712L495.141 11.87C506.835 15.4242 519.36 15.138 530.879 11.0533L536.136 9.18903C545.719 5.7912 556.034 5.00972 566.018 6.92511L608.369 15.0491C616.248 16.5607 624.358 16.397 632.171 14.5686L664.234 7.0648C672.847 5.04911 681.81 5.05914 690.418 7.09413L718.961 13.8415C728.664 16.1352 738.797 15.852 748.357 13.0201L765.231 8.02131C774.146 5.38031 783.57 4.95316 792.688 6.77688L833.824 15.0052C841.529 16.5465 849.469 16.483 857.149 14.8189L895.572 6.49262C903.161 4.84811 911.006 4.76658 918.627 6.25298L962.481 14.8057C971.037 16.4744 979.862 16.1647 988.28 13.9002L1012.38 7.41765C1020.74 5.1686 1029.5 4.84752 1038 6.47863L1083.77 15.2582C1090.95 16.6346 1098.32 16.6232 1105.49 15.2248L1150.21 6.50366C1158.66 4.85583 1167.37 5.13702 1175.69 7.32625L1200.64 13.8852C1209.28 16.158 1218.34 16.3731 1227.08 14.5133L1261.96 7.09132C1271.49 5.06409 1281.38 5.50487 1290.69 8.37184L1303.51 12.3203C1314.15 15.5967 1325.52 15.6958 1336.21 12.6057L1366 4" stroke="#E9F5FF" stroke-width="7.62395"/>
</svg>
